<svg width="20" height="20" viewBox="0 0 20 20" fill="none" xmlns="http://www.w3.org/2000/svg">
<path d="M12.5 7.5L15.8333 4.16667C16.2754 3.72464 16.2754 3.02436 15.8333 2.58233C15.3913 2.1403 14.691 2.1403 14.249 2.58233L10.9157 5.91567M12.5 7.5L6.25 13.75C5.80798 14.192 5.80798 14.8923 6.25 15.3343C6.69203 15.7764 7.39231 15.7764 7.83433 15.3343L10.9157 12.2529M12.5 7.5L10.9157 5.91567M10.9157 5.91567L4.66567 12.1657C4.22364 12.6077 4.22364 13.308 4.66567 13.75C5.10769 14.192 5.80798 14.192 6.25 13.75L10.9157 12.2529M10.9157 12.2529L17.1657 6.00292" stroke="currentColor" stroke-width="1.5" stroke-linecap="round" stroke-linejoin="round"/>
</svg>

